<svg width="80" height="80" viewBox="0 0 80 80" fill="none" xmlns="http://www.w3.org/2000/svg">
<path d="M73.3333 79.77H6.66667C2.99 79.77 0 76.78 0 73.1033V23.1033C0 19.4266 2.99 16.4366 6.66667 16.4366H40C40.442 16.4366 40.866 16.6122 41.1785 16.9248C41.4911 17.2374 41.6667 17.6613 41.6667 18.1033C41.6667 18.5453 41.4911 18.9693 41.1785 19.2818C40.866 19.5944 40.442 19.77 40 19.77H6.66667C4.82833 19.77 3.33333 21.265 3.33333 23.1033V73.1033C3.33333 74.9417 4.82833 76.4367 6.66667 76.4367H73.3333C75.1717 76.4367 76.6667 74.9417 76.6667 73.1033V23.1033C76.6667 21.265 75.1717 19.77 73.3333 19.77C72.8913 19.77 72.4674 19.5944 72.1548 19.2818C71.8423 18.9693 71.6667 18.5453 71.6667 18.1033C71.6667 17.6613 71.8423 17.2374 72.1548 16.9248C72.4674 16.6122 72.8913 16.4366 73.3333 16.4366C77.01 16.4366 80 19.4266 80 23.1033V73.1033C80 76.78 77.01 79.77 73.3333 79.77Z" fill="black"/>
<path d="M73.3333 73.1033H16.6666V23.1033H33.3333C33.7753 23.1033 34.1992 23.2789 34.5118 23.5915C34.8244 23.904 35 24.328 35 24.77C35 25.212 34.8244 25.6359 34.5118 25.9485C34.1992 26.2611 33.7753 26.4367 33.3333 26.4367H20V69.77H70V26.4367H66.6666C66.2246 26.4367 65.8007 26.2611 65.4881 25.9485C65.1756 25.6359 65 25.212 65 24.77C65 24.328 65.1756 23.904 65.4881 23.5915C65.8007 23.2789 66.2246 23.1033 66.6666 23.1033H73.3333V73.1033Z" fill="black"/>
<path d="M13.3333 69.77H0V26.4366H13.3333V69.77ZM3.33333 66.4366H10V29.77H3.33333V66.4366Z" fill="black"/>
<path d="M29.0667 45.7033L33.465 31.875L63.4516 1.89C65.97 -0.63 70.3617 -0.63 72.88 1.89C74.1286 3.14083 74.8298 4.83598 74.8298 6.60333C74.8298 8.37069 74.1286 10.0658 72.88 11.3167L42.895 41.3033L29.0667 45.7033ZM36.3966 33.6583L34.1966 40.5717L41.11 38.3717L70.5233 8.96167C71.8233 7.66167 71.8233 5.54833 70.5233 4.24833C69.2633 2.98833 67.0683 2.98833 65.8083 4.24833L36.3966 33.6583Z" fill="black"/>
<path d="M1.66675 39.77H11.6667V43.1034H1.66675V39.77Z" fill="black"/>
<path d="M1.66675 53.1033H11.6667V56.4366H1.66675V53.1033Z" fill="black"/>
<path d="M59.9167 23.5917C59.6978 23.5919 59.481 23.5489 59.2788 23.4651C59.0766 23.3813 58.8929 23.2584 58.7383 23.1034L51.6667 16.0317C51.5119 15.877 51.3892 15.6933 51.3054 15.4911C51.2217 15.2889 51.1786 15.0722 51.1786 14.8534C51.1786 14.6345 51.2217 14.4178 51.3054 14.2157C51.3892 14.0135 51.5119 13.8298 51.6667 13.675C51.8214 13.5203 52.0051 13.3975 52.2073 13.3138C52.4095 13.2301 52.6262 13.187 52.845 13.187C53.0638 13.187 53.2805 13.2301 53.4827 13.3138C53.6849 13.3975 53.8686 13.5203 54.0233 13.675L61.095 20.7467C61.3288 20.9795 61.4882 21.2765 61.553 21.6C61.6177 21.9235 61.5849 22.259 61.4586 22.5638C61.3324 22.8687 61.1184 23.1291 60.8439 23.3121C60.5693 23.4951 60.2466 23.5924 59.9167 23.5917Z" fill="black"/>
<path d="M42.0033 41.505C41.7844 41.5052 41.5677 41.4622 41.3655 41.3784C41.1632 41.2946 40.9796 41.1716 40.825 41.0166L33.7533 33.945C33.4408 33.6325 33.2653 33.2086 33.2653 32.7666C33.2653 32.3247 33.4408 31.9008 33.7533 31.5883C34.0659 31.2758 34.4897 31.1002 34.9317 31.1002C35.3736 31.1002 35.7975 31.2758 36.11 31.5883L43.1817 38.66C43.4155 38.8927 43.5749 39.1897 43.6397 39.5133C43.7044 39.8368 43.6716 40.1723 43.5453 40.4771C43.419 40.7819 43.2051 41.0424 42.9305 41.2254C42.656 41.4084 42.3333 41.5057 42.0033 41.505Z" fill="black"/>
<path d="M28.3334 48.1033C28.0034 48.104 27.6807 48.0067 27.4062 47.8237C27.1316 47.6407 26.9176 47.3802 26.7914 47.0754C26.6651 46.7706 26.6323 46.4351 26.697 46.1116C26.7618 45.7881 26.9212 45.4911 27.155 45.2583L30.4534 41.9599C30.7659 41.6474 31.1897 41.4719 31.6317 41.4719C32.0736 41.4719 32.4975 41.6474 32.81 41.9599C33.1225 42.2725 33.2981 42.6963 33.2981 43.1383C33.2981 43.5802 33.1225 44.0041 32.81 44.3166L29.5117 47.6149C29.3571 47.7699 29.1735 47.8929 28.9712 47.9767C28.769 48.0605 28.5522 48.1035 28.3334 48.1033Z" fill="black"/>
</svg>
