<svg width="98" height="95" viewBox="0 0 98 95" fill="none" xmlns="http://www.w3.org/2000/svg">
<path d="M42.875 0C42.4689 0 42.0794 0.161434 41.7922 0.448788C41.5051 0.736142 41.3438 1.12588 41.3438 1.53226V3.96242C40.5291 4.21984 39.7482 4.54468 38.9856 4.93081L37.2767 3.22081C36.9896 2.93355 36.6002 2.77218 36.1942 2.77218C35.7881 2.77218 35.3987 2.93355 35.1116 3.22081L30.7781 7.55403C30.4911 7.84137 30.3298 8.23104 30.3298 8.63734C30.3298 9.04364 30.4911 9.4333 30.7781 9.72064L32.487 11.4306C32.0972 12.1886 31.7714 12.978 31.5131 13.7903H29.0938C28.6876 13.7903 28.2982 13.9518 28.011 14.2391C27.7238 14.5265 27.5625 14.9162 27.5625 15.3226V21.4516C27.5625 21.858 27.7238 22.2477 28.011 22.5351C28.2982 22.8224 28.6876 22.9839 29.0938 22.9839H31.5162C31.7734 23.799 32.0981 24.5866 32.4839 25.3466L30.7812 27.0535C30.4941 27.3409 30.3329 27.7306 30.3329 28.1369C30.3329 28.5432 30.4941 28.9328 30.7812 29.2202L35.1116 33.5534C35.3987 33.8406 35.7881 34.002 36.1942 34.002C36.6002 34.002 36.9896 33.8406 37.2767 33.5534L38.9856 31.8434C39.7482 32.2356 40.5291 32.5635 41.3438 32.824V35.2419C41.3438 35.6483 41.5051 36.0381 41.7922 36.3254C42.0794 36.6128 42.4689 36.7742 42.875 36.7742H49C49.4061 36.7742 49.7956 36.6128 50.0828 36.3254C50.3699 36.0381 50.5312 35.6483 50.5312 35.2419V32.8179C51.3459 32.5605 52.1329 32.2387 52.8924 31.8495L54.5982 33.5534C54.8854 33.8406 55.2748 34.002 55.6808 34.002C56.0869 34.002 56.4763 33.8406 56.7634 33.5534L61.0938 29.2202C61.3809 28.9328 61.5421 28.5432 61.5421 28.1369C61.5421 27.7306 61.3809 27.3409 61.0938 27.0535L59.3911 25.3466C59.7811 24.5877 60.1069 23.7973 60.3649 22.9839H62.7812C63.1874 22.9839 63.5768 22.8224 63.864 22.5351C64.1512 22.2477 64.3125 21.858 64.3125 21.4516V15.3226C64.3125 14.9162 64.1512 14.5265 63.864 14.2391C63.5768 13.9518 63.1874 13.7903 62.7812 13.7903H60.3588C60.1028 12.977 59.7791 12.1867 59.3911 11.4276L61.0938 9.72064C61.3809 9.4333 61.5421 9.04364 61.5421 8.63734C61.5421 8.23104 61.3809 7.84137 61.0938 7.55403L56.7634 3.21774C56.4763 2.93049 56.0869 2.76912 55.6808 2.76912C55.2748 2.76912 54.8854 2.93049 54.5982 3.21774L52.8894 4.92774C52.1319 4.53765 51.3431 4.21167 50.5312 3.95323V1.53226C50.5312 1.12588 50.3699 0.736142 50.0828 0.448788C49.7956 0.161434 49.4061 0 49 0H42.875ZM44.4062 3.06452H47.4688V4.95532C47.4684 5.30283 47.5862 5.64014 47.8026 5.91188C48.0191 6.18362 48.3214 6.37366 48.6601 6.45081C50.0014 6.75726 51.2846 7.28742 52.4514 8.01984C52.7454 8.20478 53.0934 8.28428 53.4384 8.24531C53.7834 8.20633 54.1049 8.05118 54.3502 7.80532L55.6824 6.46919L57.8476 8.63581L56.5184 9.96581C56.2727 10.2113 56.1177 10.533 56.0787 10.8782C56.0398 11.2235 56.1192 11.5717 56.3041 11.8658C57.0329 13.0303 57.5566 14.3174 57.8598 15.6658C57.9375 16.0041 58.1277 16.3059 58.3992 16.5219C58.6707 16.738 59.0075 16.8553 59.3543 16.8548H61.25V19.9194H59.3604C59.0127 19.9192 58.6753 20.0374 58.4037 20.2546C58.1321 20.4719 57.9424 20.7751 57.8659 21.1145C57.5597 22.4598 57.0299 23.7377 56.2979 24.9053C56.1131 25.1994 56.0337 25.5477 56.0726 25.8929C56.1116 26.2381 56.2666 26.5599 56.5123 26.8053L57.8476 28.1384L55.6824 30.305L54.3532 28.975C54.1086 28.7314 53.7888 28.5776 53.4458 28.5386C53.1028 28.4997 52.7567 28.5779 52.4637 28.7605C51.2946 29.4912 50.0108 30.0196 48.6662 30.3234C48.3275 30.3991 48.0245 30.5877 47.8069 30.8583C47.5894 31.1289 47.4701 31.4654 47.4688 31.8127V33.7097H44.4062V31.8189C44.4059 31.4719 44.2878 31.1353 44.0714 30.8642C43.855 30.5931 43.553 30.4035 43.2149 30.3265C41.8722 30.0212 40.5905 29.4918 39.4236 28.7605C39.131 28.574 38.7838 28.4924 38.4388 28.5292C38.0939 28.5659 37.7716 28.7188 37.5248 28.9627L36.1926 30.2989L34.0274 28.1323L35.3566 26.8023C35.6001 26.5574 35.7537 26.2374 35.7926 25.8942C35.8315 25.551 35.7534 25.2047 35.5709 24.9114C34.8427 23.7413 34.3167 22.4566 34.0152 21.1115C33.9393 20.7715 33.7499 20.4675 33.4782 20.2497C33.2066 20.0319 32.8688 19.9132 32.5207 19.9132H30.625V16.8487H32.5146C32.8618 16.849 33.1989 16.7312 33.4705 16.5146C33.7421 16.298 33.932 15.9955 34.0091 15.6566C34.3153 14.3144 34.8451 13.0365 35.5771 11.8689C35.7627 11.5745 35.8426 11.2256 35.8036 10.8797C35.7646 10.5338 35.6091 10.2115 35.3627 9.96581L34.0274 8.62968L36.1926 6.46306L37.5218 7.79306C37.7657 8.03767 38.0851 8.19258 38.4281 8.23264C38.7712 8.27269 39.1176 8.19554 39.4113 8.01371C40.5804 7.28296 41.8642 6.7546 43.2088 6.45081C43.5475 6.3751 43.8505 6.18648 44.0681 5.91588C44.2856 5.64528 44.4049 5.30875 44.4062 4.96145V3.06452ZM45.9375 8.13935C43.2223 8.14421 40.6197 9.22524 38.6992 11.1458C36.7787 13.0664 35.6968 15.6702 35.6904 18.3871C35.6968 21.1046 36.7785 23.709 38.6988 25.6305C40.6191 27.5521 43.2218 28.6345 45.9375 28.641C48.6532 28.6345 51.2559 27.5521 53.1762 25.6305C55.0965 23.709 56.1782 21.1046 56.1846 18.3871C56.1782 15.6702 55.0963 13.0664 53.1758 11.1458C51.2553 9.22524 48.6527 8.14421 45.9375 8.13935ZM45.9375 11.2039C49.9188 11.2039 53.1221 14.4002 53.1221 18.3871C53.125 19.332 52.9411 20.2682 52.581 21.1417C52.2209 22.0152 51.6918 22.8089 51.0241 23.4771C50.3564 24.1452 49.5632 24.6747 48.6903 25.035C47.8173 25.3953 46.8818 25.5793 45.9375 25.5765C44.9932 25.5793 44.0577 25.3953 43.1847 25.035C42.3118 24.6747 41.5186 24.1452 40.8509 23.4771C40.1832 22.8089 39.6541 22.0152 39.294 21.1417C38.9339 20.2682 38.75 19.332 38.7529 18.3871C38.7529 14.4032 41.9532 11.2039 45.9375 11.2039ZM72.9426 30.6452C72.5365 30.6452 72.147 30.8066 71.8599 31.0939C71.5727 31.3813 71.4114 31.771 71.4114 32.1774V35.2297C70.3263 35.5574 69.2752 35.9884 68.2723 36.5168L66.1286 34.3716C65.8415 34.0853 65.4528 33.9245 65.0475 33.9245C64.6422 33.9245 64.2535 34.0853 63.9664 34.3716L58.8459 39.4894C58.7033 39.6317 58.5902 39.8008 58.513 39.9869C58.4358 40.1731 58.3961 40.3726 58.3961 40.5742C58.3961 40.7757 58.4358 40.9753 58.513 41.1615C58.5902 41.3476 58.7033 41.5167 58.8459 41.659L60.9989 43.8134C60.4672 44.8125 60.0324 45.8602 59.7004 46.9423H56.6562C56.2501 46.9423 55.8607 47.1037 55.5735 47.391C55.2863 47.6784 55.125 48.0681 55.125 48.4745V55.7252C55.125 56.1315 55.2863 56.5213 55.5735 56.8086C55.8607 57.096 56.2501 57.2574 56.6562 57.2574H59.7004C60.0311 58.3423 60.4568 59.3873 60.9866 60.3924L58.8429 62.5406C58.5558 62.828 58.3945 63.2176 58.3945 63.6239C58.3945 64.0303 58.5558 64.4199 58.8429 64.7073L63.9664 69.825C64.2536 70.1123 64.643 70.2736 65.049 70.2736C65.4551 70.2736 65.8445 70.1123 66.1316 69.825L68.2754 67.6768C69.2829 68.21 70.3273 68.6421 71.4114 68.9761V72.0161C71.4114 72.4225 71.5727 72.8122 71.8599 73.0996C72.147 73.387 72.5365 73.5484 72.9426 73.5484H80.1824C80.5885 73.5484 80.978 73.387 81.2651 73.0996C81.5523 72.8122 81.7136 72.4225 81.7136 72.0161V68.97C82.7987 68.6423 83.8498 68.2113 84.8527 67.6829L86.9964 69.8281C87.2835 70.1144 87.6722 70.2752 88.0775 70.2752C88.4828 70.2752 88.8715 70.1144 89.1586 69.8281L94.2791 64.7103C94.4217 64.568 94.5348 64.3989 94.612 64.2127C94.6892 64.0266 94.7289 63.827 94.7289 63.6255C94.7289 63.4239 94.6892 63.2244 94.612 63.0382C94.5348 62.8521 94.4217 62.683 94.2791 62.5406L92.1261 60.3863C92.659 59.3842 93.0908 58.3423 93.4246 57.2574H96.4688C96.8749 57.2574 97.2643 57.096 97.5515 56.8086C97.8387 56.5213 98 56.1315 98 55.7252V48.4745C98 48.0681 97.8387 47.6784 97.5515 47.391C97.2643 47.1037 96.8749 46.9423 96.4688 46.9423H93.4246C93.0968 45.8586 92.6661 44.8088 92.1384 43.8073L94.2821 41.659C94.5692 41.3717 94.7305 40.982 94.7305 40.5757C94.7305 40.1694 94.5692 39.7798 94.2821 39.4924L89.1586 34.3747C88.8714 34.0874 88.482 33.9261 88.076 33.9261C87.6699 33.9261 87.2805 34.0874 86.9934 34.3747L84.8496 36.5229C83.8482 35.9905 82.7981 35.5554 81.7136 35.2235V32.1774C81.7136 31.771 81.5523 31.3813 81.2651 31.0939C80.978 30.8066 80.5885 30.6452 80.1824 30.6452H72.9426ZM74.4739 33.7097H78.6511V36.2226C78.6499 36.5702 78.7669 36.9079 78.9828 37.1802C79.1988 37.4525 79.5008 37.6433 79.8394 37.7211C81.4564 38.0889 83.006 38.7294 84.4086 39.6119C84.7025 39.7969 85.0505 39.8764 85.3955 39.8374C85.7405 39.7984 86.0621 39.6433 86.3074 39.3974L88.0775 37.6231L91.0328 40.5742L89.2658 42.3455C89.0206 42.5898 88.8653 42.91 88.8253 43.2539C88.7852 43.5978 88.8628 43.9452 89.0452 44.2394C89.9242 45.649 90.5612 47.1966 90.9226 48.8177C91.0004 49.1565 91.191 49.4588 91.4631 49.6748C91.7353 49.8909 92.0727 50.008 92.4201 50.0068H94.9375V54.1929H92.4263C92.0789 54.1917 91.7414 54.3088 91.4693 54.5248C91.1971 54.7409 91.0065 55.0431 90.9287 55.3819C90.562 56.9992 89.9253 58.5429 89.0452 59.9481C88.86 60.2418 88.7801 60.5899 88.8185 60.9351C88.8569 61.2803 89.0113 61.6022 89.2566 61.8481L91.0328 63.6255L88.0775 66.5766L86.3135 64.8084C86.0682 64.5625 85.7467 64.4074 85.4017 64.3684C85.0567 64.3294 84.7087 64.4089 84.4147 64.5939C83.006 65.4734 81.4656 66.1108 79.8455 66.4724C79.5068 66.5488 79.2042 66.7382 78.9871 67.0093C78.7701 67.2805 78.6516 67.6174 78.6511 67.9648V70.4839H74.4739V67.971C74.4737 67.6244 74.3561 67.2881 74.1403 67.0171C73.9244 66.746 73.6232 66.5562 73.2856 66.4785C71.6672 66.1095 70.1225 65.4703 68.7164 64.5877C68.4225 64.4028 68.0745 64.3233 67.7295 64.3623C67.3845 64.4013 67.0629 64.5564 66.8176 64.8023L65.0475 66.5766L62.0922 63.6255L63.8592 61.8542C64.1044 61.6099 64.2597 61.2897 64.2997 60.9458C64.3398 60.6018 64.2622 60.2545 64.0798 59.9603C63.2014 58.5506 62.5667 57.0028 62.2024 55.3819C62.1246 55.0431 61.934 54.7409 61.6619 54.5248C61.3897 54.3088 61.0523 54.1917 60.7049 54.1929H58.1875V50.0068H60.6987C61.0461 50.008 61.3836 49.8909 61.6557 49.6748C61.9279 49.4588 62.1185 49.1565 62.1963 48.8177C62.563 47.2005 63.1997 45.6568 64.0798 44.2516C64.265 43.9578 64.3449 43.6098 64.3065 43.2646C64.2681 42.9194 64.1137 42.5975 63.8684 42.3516L62.0922 40.5742L65.0475 37.6231L66.8115 39.3913C67.0568 39.6372 67.3783 39.7923 67.7233 39.8313C68.0683 39.8703 68.4163 39.7907 68.7103 39.6058C70.119 38.7263 71.6594 38.0889 73.2795 37.7273C73.6192 37.6506 73.9226 37.4604 74.1398 37.1879C74.3569 36.9155 74.4747 36.5772 74.4739 36.2287V33.7097ZM22.8309 39.8387C22.4248 39.8387 22.0353 40.0001 21.7482 40.2875C21.461 40.5748 21.2997 40.9646 21.2997 41.371V45.6674C19.6677 46.1338 18.093 46.7813 16.6049 47.5981L13.5852 44.5734C13.2981 44.2861 12.9087 44.1248 12.5027 44.1248C12.0966 44.1248 11.7072 44.2861 11.4201 44.5734L4.73156 51.2694C4.4445 51.5567 4.28323 51.9464 4.28323 52.3527C4.28323 52.759 4.4445 53.1486 4.73156 53.436L7.75731 56.4668C6.93634 57.9522 6.28405 59.5249 5.81262 61.1555H1.53125C1.12514 61.1555 0.735658 61.3169 0.448493 61.6043C0.161328 61.8916 0 62.2814 0 62.6877L0 72.1571C0 72.5635 0.161328 72.9532 0.448493 73.2406C0.735658 73.5279 1.12514 73.6894 1.53125 73.6894H5.82487C6.29344 75.3258 6.93044 76.8948 7.74506 78.3842L4.73156 81.4058C4.4445 81.6931 4.28323 82.0828 4.28323 82.4891C4.28323 82.8954 4.4445 83.2851 4.73156 83.5724L11.4201 90.2715C11.7072 90.5587 12.0966 90.7201 12.5027 90.7201C12.9087 90.7201 13.2981 90.5587 13.5852 90.2715L16.6171 87.2437C18.1024 88.0619 19.6674 88.7116 21.3027 89.1835V93.4677C21.3027 93.8741 21.4641 94.2639 21.7512 94.5512C22.0384 94.8386 22.4279 95 22.834 95H32.2941C32.7002 95 33.0897 94.8386 33.3768 94.5512C33.664 94.2639 33.8253 93.8741 33.8253 93.4677V89.1774C35.4573 88.7112 37.0321 88.0636 38.5201 87.2468L41.5397 90.2715C41.8269 90.5587 42.2163 90.7201 42.6223 90.7201C43.0284 90.7201 43.4178 90.5587 43.7049 90.2715L50.3934 83.5724C50.6805 83.2851 50.8418 82.8954 50.8418 82.4891C50.8418 82.0828 50.6805 81.6931 50.3934 81.4058L47.3677 78.3781C48.1884 76.8887 48.8377 75.3258 49.3124 73.6894H53.5938C53.9999 73.6894 54.3893 73.5279 54.6765 73.2406C54.9637 72.9532 55.125 72.5635 55.125 72.1571V62.6877C55.125 62.2814 54.9637 61.8916 54.6765 61.6043C54.3893 61.3169 53.9999 61.1555 53.5938 61.1555H49.3001C48.8369 59.5238 48.1929 57.9491 47.3799 56.4606L50.3934 53.439C50.536 53.2967 50.6492 53.1276 50.7264 52.9415C50.8036 52.7553 50.8433 52.5557 50.8433 52.3542C50.8433 52.1526 50.8036 51.9531 50.7264 51.7669C50.6492 51.5808 50.536 51.4117 50.3934 51.2694L43.7049 44.5734C43.4178 44.2861 43.0284 44.1248 42.6223 44.1248C42.2163 44.1248 41.8269 44.2861 41.5397 44.5734L38.5079 47.6011C37.0231 46.7818 35.4515 46.1312 33.8223 45.6613V41.371C33.8223 40.9646 33.6609 40.5748 33.3738 40.2875C33.0866 40.0001 32.6971 39.8387 32.291 39.8387H22.8309ZM76.5625 40.2647C73.4282 40.2703 70.424 41.5188 68.2077 43.7365C65.9914 45.9542 64.7439 48.9604 64.7382 52.0968C64.7439 55.2337 65.9912 58.2405 68.2073 60.4592C70.4234 62.6779 73.4277 63.9277 76.5625 63.935C79.6973 63.9277 82.7016 62.6779 84.9177 60.4592C87.1338 58.2405 88.3811 55.2337 88.3868 52.0968C88.3811 48.9604 87.1336 45.9542 84.9173 43.7365C82.701 41.5188 79.6968 40.2703 76.5625 40.2647ZM24.3622 42.9032H30.7628V46.6634C30.7625 47.0109 30.8802 47.3482 31.0967 47.6199C31.3132 47.8917 31.6155 48.0817 31.9541 48.1589C34.1193 48.6523 36.1896 49.5073 38.073 50.6902C38.3666 50.8743 38.714 50.9534 39.0583 50.9144C39.4026 50.8755 39.7236 50.7208 39.9687 50.4756L42.6239 47.8218L47.1472 52.3542L44.5073 54.9989C44.2629 55.243 44.1081 55.5626 44.068 55.9058C44.028 56.2491 44.1051 56.5958 44.2868 56.8897C45.4628 58.7774 46.3172 60.849 46.8042 63.0187C46.88 63.3582 47.0689 63.6617 47.34 63.8795C47.611 64.0973 47.948 64.2163 48.2956 64.2169H52.0625V70.6279H48.3048C47.9575 70.6276 47.6204 70.7454 47.3489 70.962C47.0773 71.1786 46.8874 71.4812 46.8103 71.82C46.317 73.9887 45.4618 76.0587 44.2807 77.9429C44.0966 78.2367 44.0176 78.5843 44.0566 78.9289C44.0955 79.2734 44.2501 79.5946 44.4951 79.8398L47.1472 82.4906L42.6239 87.02L39.9809 84.3753C39.7356 84.1295 39.4141 83.9743 39.0691 83.9353C38.7241 83.8964 38.3761 83.9759 38.0822 84.1608C36.1962 85.3371 34.1255 86.1866 31.9572 86.6737C31.618 86.7503 31.315 86.94 31.0979 87.2118C30.8808 87.4836 30.7626 87.8213 30.7628 88.1692V91.9355H24.3622V88.1753C24.3611 87.8289 24.2428 87.493 24.0264 87.2225C23.8101 86.952 23.5085 86.7629 23.1709 86.686C21.0036 86.1924 18.9349 85.3366 17.052 84.1547C16.759 83.9697 16.4121 83.8897 16.0678 83.9275C15.7235 83.9654 15.4022 84.1189 15.1563 84.3631L12.5011 87.02L7.97781 82.4906L10.6177 79.846C10.8621 79.6019 11.0169 79.2822 11.057 78.939C11.097 78.5957 11.0199 78.249 10.8382 77.9552C9.66063 76.0683 8.80957 73.9962 8.32081 71.8261C8.24504 71.4867 8.05609 71.1831 7.78505 70.9653C7.514 70.7476 7.17697 70.6286 6.82938 70.6279H3.0625V64.2169H6.82019C7.16747 64.2173 7.50455 64.0995 7.77612 63.8828C8.04768 63.6662 8.23759 63.3637 8.31469 63.0248C8.80775 60.8582 9.66219 58.7866 10.8443 56.9019C11.0284 56.6081 11.1074 56.2605 11.0684 55.916C11.0295 55.5714 10.8749 55.2503 10.6299 55.005L7.97781 52.3542L12.5011 47.8218L15.1441 50.4695C15.3894 50.7154 15.7109 50.8705 16.0559 50.9095C16.4009 50.9485 16.7489 50.869 17.0428 50.684C18.9287 49.5076 20.9994 48.658 23.1678 48.1711C23.5075 48.0945 23.8109 47.9042 24.0281 47.6318C24.2452 47.3594 24.3631 47.021 24.3622 46.6726V42.9032ZM76.5625 43.3292C77.714 43.326 78.8548 43.5505 79.9193 43.99C80.9838 44.4295 81.951 45.0752 82.7652 45.8899C83.5795 46.7047 84.2248 47.6725 84.6639 48.7377C85.1031 49.8029 85.3275 50.9445 85.3243 52.0968C85.3275 53.2493 85.1032 54.3912 84.6641 55.4567C84.225 56.5223 83.5798 57.4905 82.7656 58.3058C81.9514 59.121 80.9843 59.7673 79.9198 60.2074C78.8553 60.6476 77.7143 60.8729 76.5625 60.8705C75.4107 60.8729 74.2697 60.6476 73.2052 60.2074C72.1407 59.7673 71.1736 59.121 70.3594 58.3058C69.5452 57.4905 68.9 56.5223 68.4609 55.4567C68.0218 54.3912 67.7975 53.2493 67.8007 52.0968C67.7975 50.9445 68.0219 49.8029 68.4611 48.7377C68.9002 47.6725 69.5455 46.7047 70.3598 45.8899C71.174 45.0752 72.1412 44.4295 73.2057 43.99C74.2702 43.5505 75.411 43.326 76.5625 43.3292ZM27.5625 52.4155C23.5878 52.422 19.7778 54.0048 16.9673 56.8172C14.1568 59.6295 12.575 63.4421 12.5685 67.4194C12.575 71.3966 14.1568 75.2092 16.9673 78.0215C19.7778 80.8339 23.5878 82.4167 27.5625 82.4232C31.5372 82.4167 35.3472 80.8339 38.1577 78.0215C40.9682 75.2092 42.55 71.3966 42.5565 67.4194C42.55 63.4421 40.9682 59.6295 38.1577 56.8172C35.3472 54.0048 31.5372 52.422 27.5625 52.4155ZM27.5625 55.48C29.1302 55.4772 30.683 55.7841 32.1318 56.3831C33.5807 56.9821 34.8971 57.8614 36.0056 58.9707C37.1141 60.0799 37.9929 61.3972 38.5915 62.847C39.1901 64.2968 39.4968 65.8507 39.494 67.4194C39.4968 68.988 39.1901 70.5419 38.5915 71.9917C37.9929 73.4415 37.1141 74.7588 36.0056 75.8681C34.8971 76.9773 33.5807 77.8566 32.1318 78.4556C30.683 79.0546 29.1302 79.3615 27.5625 79.3587C25.9948 79.3615 24.442 79.0546 22.9932 78.4556C21.5443 77.8566 20.2279 76.9773 19.1194 75.8681C18.0109 74.7588 17.1321 73.4415 16.5335 71.9917C15.9349 70.5419 15.6282 68.988 15.631 67.4194C15.6282 65.8507 15.9349 64.2968 16.5335 62.847C17.1321 61.3972 18.0109 60.0799 19.1194 58.9707C20.2279 57.8614 21.5443 56.9821 22.9932 56.3831C24.442 55.7841 25.9948 55.4772 27.5625 55.48Z" fill="black"/>
</svg>
