<svg width="24" height="24" viewBox="0 0 24 24" fill="none" xmlns="http://www.w3.org/2000/svg">
<path d="M8.05395 11.9815C8.05395 9.8645 9.76973 8.14786 11.8868 8.14786C14.0039 8.14786 15.7206 9.8645 15.7206 11.9815C15.7206 14.0985 14.0039 15.8151 11.8868 15.8151C9.76973 15.8151 8.05395 14.0985 8.05395 11.9815ZM5.98145 11.9815C5.98145 15.2429 8.62526 17.8866 11.8868 17.8866C15.1484 17.8866 17.7922 15.2429 17.7922 11.9815C17.7922 8.72008 15.1484 6.07638 11.8868 6.07638C8.62526 6.07638 5.98145 8.72008 5.98145 11.9815ZM16.6459 5.84229C16.6459 6.604 17.2636 7.22266 18.0263 7.22266C18.788 7.22266 19.4067 6.604 19.4067 5.84229C19.4067 5.08058 18.789 4.46285 18.0263 4.46285C17.2636 4.46285 16.6459 5.08058 16.6459 5.84229ZM7.24018 21.3422C6.11893 21.2911 5.50954 21.1044 5.10452 20.9465C4.56758 20.7375 4.18485 20.4885 3.78168 20.0863C3.37945 19.6841 3.12956 19.3014 2.92147 18.7645C2.76355 18.3595 2.57683 17.7501 2.52574 16.6289C2.47 15.4166 2.45885 15.0525 2.45885 11.9815C2.45885 8.9105 2.47093 8.5473 2.52574 7.33413C2.57683 6.21293 2.76448 5.60449 2.92147 5.19855C3.13049 4.66164 3.37945 4.27892 3.78168 3.87577C4.18392 3.47355 4.56665 3.22367 5.10452 3.01559C5.50954 2.85768 6.11893 2.67097 7.24018 2.61987C8.45247 2.56414 8.81662 2.55299 11.8868 2.55299C14.9579 2.55299 15.3212 2.56507 16.5344 2.61987C17.6556 2.67097 18.2641 2.85861 18.67 3.01559C19.207 3.22367 19.5897 3.47355 19.9929 3.87577C20.3951 4.27799 20.6441 4.66164 20.8531 5.19855C21.011 5.60356 21.1977 6.21293 21.2488 7.33413C21.3046 8.5473 21.3157 8.9105 21.3157 11.9815C21.3157 15.0516 21.3046 15.4157 21.2488 16.6289C21.1977 17.7501 21.0101 18.3595 20.8531 18.7645C20.6441 19.3014 20.3951 19.6841 19.9929 20.0863C19.5906 20.4885 19.207 20.7375 18.67 20.9465C18.265 21.1044 17.6556 21.2911 16.5344 21.3422C15.3221 21.3979 14.9579 21.4091 11.8868 21.4091C8.81662 21.4091 8.45247 21.3979 7.24018 21.3422ZM7.14543 0.551175C5.92107 0.60691 5.08501 0.801054 4.35392 1.0853C3.59775 1.37884 2.95677 1.7727 2.31672 2.4118C1.6776 3.05089 1.28372 3.69185 0.990173 4.44891C0.705913 5.17997 0.511761 6.016 0.456024 7.24031C0.399358 8.46648 0.386353 8.85849 0.386353 11.9815C0.386353 15.1045 0.399358 15.4965 0.456024 16.7227C0.511761 17.947 0.705913 18.783 0.990173 19.5141C1.28372 20.2702 1.67667 20.9121 2.31672 21.5512C2.95584 22.1903 3.59682 22.5832 4.35392 22.8777C5.08594 23.162 5.92107 23.3561 7.14543 23.4118C8.37258 23.4676 8.76367 23.4815 11.8868 23.4815C15.0109 23.4815 15.402 23.4685 16.6282 23.4118C17.8526 23.3561 18.6886 23.162 19.4197 22.8777C20.1759 22.5832 20.8169 22.1903 21.4569 21.5512C22.096 20.9121 22.489 20.2702 22.7835 19.5141C23.0677 18.783 23.2628 17.947 23.3176 16.7227C23.3733 15.4956 23.3864 15.1045 23.3864 11.9815C23.3864 8.85849 23.3733 8.46648 23.3176 7.24031C23.2619 6.016 23.0677 5.17997 22.7835 4.44891C22.489 3.69277 22.096 3.05182 21.4569 2.4118C20.8178 1.7727 20.1759 1.37884 19.4206 1.0853C18.6886 0.801054 17.8526 0.605981 16.6291 0.551175C15.4029 0.49544 15.0109 0.481506 11.8877 0.481506C8.76367 0.481506 8.37258 0.494511 7.14543 0.551175Z" fill="white"/>
</svg>
