<svg width="100" height="100" viewBox="0 0 100 100" fill="none" xmlns="http://www.w3.org/2000/svg">
<path d="M61.0303 19.2401C55.4258 24.8446 55.4258 33.9252 61.0303 39.5493C66.6349 45.1539 75.7155 45.1539 81.3396 39.5493C86.9441 33.9447 86.9441 24.8446 81.3396 19.2401C75.7155 13.6355 66.6349 13.6355 61.0303 19.2401ZM78.3908 36.6006C74.4071 40.5843 67.9628 40.5843 63.9791 36.6006C59.9953 32.6168 59.9953 26.1726 63.9791 22.1888C67.9628 18.2051 74.4071 18.2051 78.3908 22.1888C82.355 26.1726 82.355 32.6364 78.3908 36.6006Z" fill="black"/>
<path d="M97.2008 3.86323C96.986 3.37502 96.5955 2.98446 96.1268 2.78918C95.8729 2.67201 70.877 -7.83411 50.3139 12.7095C46.3887 16.6346 42.6003 21.2628 39.1242 26.1448L34.3789 25.0512C27.2121 23.3913 19.8305 25.5004 14.6165 30.6948L1.66933 43.6615C-1.76762 47.0985 0.439058 52.9374 5.22345 53.3084L23.4627 54.773C22.662 56.9016 21.9786 58.9911 21.588 60.3776C21.2365 61.6078 21.2951 62.8772 21.6661 64.0489C18.3659 64.9472 15.3585 66.5875 13.6596 68.2865C9.91019 72.0163 6.57088 88.3614 5.94599 91.603C5.67259 93.1653 7.05909 94.3565 8.387 94.044C11.6287 93.3996 27.9737 90.0603 31.7036 86.3304C33.4806 84.5534 35.0819 81.507 35.9607 78.3239C37.2105 78.7145 38.4798 78.7145 39.632 78.3825H39.6515C41.038 77.9919 43.0689 77.3475 45.2365 76.5078L46.7012 94.747C47.0722 99.5314 52.9306 101.719 56.348 98.3012L69.3147 85.3345C74.5092 80.14 76.6377 72.7389 74.9583 65.5721L73.8648 60.8267C78.7468 57.3507 83.3749 53.5623 87.3001 49.6371C107.844 29.1131 97.318 4.11709 97.2008 3.86323ZM4.6376 46.6103L17.5847 33.6436C21.7833 29.445 27.7198 27.7656 33.4416 29.1131L36.5856 29.8356C31.9184 36.8462 27.9737 44.1888 25.1226 50.7112L5.55542 49.1489C4.2861 49.0317 3.73931 47.489 4.6376 46.6103ZM28.7548 83.4012C26.9387 85.2173 17.9362 87.7365 10.6718 89.3378C12.2536 82.0538 14.7727 73.0708 16.6083 71.2547C18.1901 69.6534 21.2756 68.2669 24.2829 67.7201L32.2894 75.7267C32.2699 75.8048 32.2699 75.8829 32.2504 75.9805C31.6645 78.8512 30.239 81.9171 28.7548 83.4012ZM36.2536 73.7739L26.2162 63.7364C25.6303 63.1506 25.396 62.2718 25.6108 61.4907C25.7865 60.8853 26.1185 59.7527 26.5481 58.4833L41.5067 73.4419C40.6084 73.7543 39.4172 74.1254 38.4993 74.3792C37.7182 74.6136 36.859 74.3792 36.2536 73.7739ZM70.877 66.5485C72.2049 72.3092 70.5255 78.2263 66.3464 82.4053L53.3798 95.3719C52.4815 96.2702 50.9583 95.7039 50.8411 94.4541L49.2789 74.887C55.8013 72.0554 63.1438 68.0912 70.1544 63.424L70.877 66.5485ZM45.7833 71.821L28.1494 54.1872C33.1291 42.0212 42.6393 26.262 53.2431 15.6582C65.3505 3.55078 81.2659 1.73466 93.6663 6.30424C95.1309 10.4051 100.95 30.109 84.3123 46.747C73.7085 57.3507 57.9493 66.8609 45.7833 71.821Z" fill="black"/>
</svg>
