<svg xmlns="http://www.w3.org/2000/svg" xmlns:xlink="http://www.w3.org/1999/xlink" width="500" zoomAndPan="magnify" viewBox="0 0 375 374.999991" height="500" preserveAspectRatio="xMidYMid meet" version="1.0"><defs><clipPath id="cd5142fea7"><path d="M 0 64.121094 L 375 64.121094 L 375 209 L 0 209 Z M 0 64.121094 " clip-rule="nonzero"/></clipPath><clipPath id="54c057d958"><path d="M 131 106.214844 L 373.222656 106.214844 L 373.222656 310.734375 L 131 310.734375 Z M 131 106.214844 " clip-rule="nonzero"/></clipPath><clipPath id="73b795a0dc"><path d="M 75.765625 207.238281 L 118.796875 207.238281 L 118.796875 310.734375 L 75.765625 310.734375 Z M 75.765625 207.238281 " clip-rule="nonzero"/></clipPath></defs><g clip-path="url(#cd5142fea7)"><path fill="#fe4eee" d="M 251.632812 64.125 L 0 64.125 C 0 87.625 19.050781 106.675781 42.554688 106.675781 L 251.632812 106.675781 C 312.398438 106.675781 363.042969 150.828125 373.183594 208.738281 C 374.328125 202.238281 374.960938 195.558594 375.027344 188.746094 C 375.691406 120.144531 320.082031 64.125 251.632812 64.125 " fill-opacity="1" fill-rule="nonzero"/></g><g clip-path="url(#54c057d958)"><path fill="#2f81ff" d="M 251.632812 106.675781 C 296.628906 106.675781 333.160156 143.625 332.472656 188.78125 C 331.796875 233.144531 294.773438 268.375 250.40625 268.375 L 173.613281 268.375 L 173.613281 161.792969 L 131.0625 197.007812 L 131.0625 310.925781 L 250.058594 310.925781 C 311.179688 310.925781 362.929688 267.015625 373.183594 208.738281 C 363.042969 150.828125 312.398438 106.675781 251.632812 106.675781 " fill-opacity="1" fill-rule="nonzero"/></g><g clip-path="url(#73b795a0dc)"><path fill="#fe4eee" d="M 75.894531 310.925781 L 118.449219 310.925781 L 118.449219 207.441406 L 75.894531 242.652344 L 75.894531 310.925781 " fill-opacity="1" fill-rule="nonzero"/></g><path fill="#fe4eee" d="M 227.398438 256.34375 L 227.398438 117.285156 L 184.851562 152.496094 L 184.851562 256.34375 L 227.398438 256.34375 " fill-opacity="1" fill-rule="nonzero"/></svg>