<svg xmlns="http://www.w3.org/2000/svg" xmlns:xlink="http://www.w3.org/1999/xlink" width="500" zoomAndPan="magnify" viewBox="0 0 375 374.999991" height="500" preserveAspectRatio="xMidYMid meet" version="1.0"><defs><g/><clipPath id="1c88f41402"><path d="M 125.144531 100.539062 L 249.644531 100.539062 L 249.644531 148.75 L 125.144531 148.75 Z M 125.144531 100.539062 " clip-rule="nonzero"/></clipPath><clipPath id="dae7945ad3"><path d="M 168.691406 114.535156 L 249.253906 114.535156 L 249.253906 182.609375 L 168.691406 182.609375 Z M 168.691406 114.535156 " clip-rule="nonzero"/></clipPath><clipPath id="1aac65dea0"><path d="M 150.339844 148.128906 L 164.648438 148.128906 L 164.648438 182.609375 L 150.339844 182.609375 Z M 150.339844 148.128906 " clip-rule="nonzero"/></clipPath></defs><g clip-path="url(#1c88f41402)"><path fill="#fe4eee" d="M 208.820312 100.539062 L 125.144531 100.539062 C 125.144531 108.351562 131.480469 114.6875 139.296875 114.6875 L 208.820312 114.6875 C 229.027344 114.6875 245.867188 129.371094 249.238281 148.628906 C 249.621094 146.464844 249.832031 144.246094 249.855469 141.980469 C 250.074219 119.167969 231.582031 100.539062 208.820312 100.539062 " fill-opacity="1" fill-rule="nonzero"/></g><g clip-path="url(#dae7945ad3)"><path fill="#2f81ff" d="M 208.820312 114.6875 C 223.785156 114.6875 235.933594 126.976562 235.703125 141.992188 C 235.476562 156.742188 223.167969 168.457031 208.414062 168.457031 L 182.878906 168.457031 L 182.878906 133.015625 L 168.726562 144.726562 L 168.726562 182.609375 L 208.296875 182.609375 C 228.621094 182.609375 245.832031 168.003906 249.238281 148.628906 C 245.867188 129.371094 229.027344 114.6875 208.820312 114.6875 " fill-opacity="1" fill-rule="nonzero"/></g><g clip-path="url(#1aac65dea0)"><path fill="#fe4eee" d="M 150.382812 182.609375 L 164.53125 182.609375 L 164.53125 148.195312 L 150.382812 159.90625 L 150.382812 182.609375 " fill-opacity="1" fill-rule="nonzero"/></g><path fill="#fe4eee" d="M 200.761719 164.457031 L 200.761719 118.214844 L 186.613281 129.925781 L 186.613281 164.457031 L 200.761719 164.457031 " fill-opacity="1" fill-rule="nonzero"/><g fill="#2f81ff" fill-opacity="1"><g transform="translate(110.02358, 236.169712)"><g><path d="M 3.734375 -31.5 L 18.046875 -31.5 C 21.460938 -31.5 24.484375 -30.84375 27.109375 -29.53125 C 29.734375 -28.226562 31.773438 -26.390625 33.234375 -24.015625 C 34.691406 -21.648438 35.421875 -18.894531 35.421875 -15.75 C 35.421875 -12.601562 34.691406 -9.84375 33.234375 -7.46875 C 31.773438 -5.101562 29.734375 -3.265625 27.109375 -1.953125 C 24.484375 -0.648438 21.460938 0 18.046875 0 L 3.734375 0 Z M 17.6875 -5.984375 C 20.832031 -5.984375 23.34375 -6.859375 25.21875 -8.609375 C 27.09375 -10.367188 28.03125 -12.75 28.03125 -15.75 C 28.03125 -18.75 27.09375 -21.125 25.21875 -22.875 C 23.34375 -24.632812 20.832031 -25.515625 17.6875 -25.515625 L 11.03125 -25.515625 L 11.03125 -5.984375 Z M 17.6875 -5.984375 "/></g></g></g><g fill="#2f81ff" fill-opacity="1"><g transform="translate(149.613923, 236.169712)"><g><path d="M 23.8125 0 L 17.734375 -8.78125 L 11.03125 -8.78125 L 11.03125 0 L 3.734375 0 L 3.734375 -31.5 L 17.375 -31.5 C 20.164062 -31.5 22.585938 -31.03125 24.640625 -30.09375 C 26.691406 -29.164062 28.269531 -27.847656 29.375 -26.140625 C 30.488281 -24.429688 31.046875 -22.40625 31.046875 -20.0625 C 31.046875 -17.726562 30.484375 -15.710938 29.359375 -14.015625 C 28.234375 -12.316406 26.632812 -11.019531 24.5625 -10.125 L 31.640625 0 Z M 23.671875 -20.0625 C 23.671875 -21.832031 23.097656 -23.191406 21.953125 -24.140625 C 20.816406 -25.085938 19.15625 -25.5625 16.96875 -25.5625 L 11.03125 -25.5625 L 11.03125 -14.578125 L 16.96875 -14.578125 C 19.15625 -14.578125 20.816406 -15.054688 21.953125 -16.015625 C 23.097656 -16.972656 23.671875 -18.320312 23.671875 -20.0625 Z M 23.671875 -20.0625 "/></g></g></g><g fill="#2f81ff" fill-opacity="1"><g transform="translate(185.110327, 236.169712)"><g><path d="M 24.484375 -6.75 L 9.859375 -6.75 L 7.0625 0 L -0.40625 0 L 13.640625 -31.5 L 20.828125 -31.5 L 34.921875 0 L 27.265625 0 Z M 22.1875 -12.28125 L 17.1875 -24.34375 L 12.1875 -12.28125 Z M 22.1875 -12.28125 "/></g></g></g><g fill="#2f81ff" fill-opacity="1"><g transform="translate(222.001378, 236.169712)"><g><path d="M 32.40625 0 L 32.359375 -18.90625 L 23.078125 -3.328125 L 19.796875 -3.328125 L 10.578125 -18.5 L 10.578125 0 L 3.734375 0 L 3.734375 -31.5 L 9.765625 -31.5 L 21.5625 -11.921875 L 33.171875 -31.5 L 39.15625 -31.5 L 39.234375 0 Z M 32.40625 0 "/></g></g></g><g fill="#2f81ff" fill-opacity="1"><g transform="translate(157.09016, 264.36971)"><g><path d="M 0.78125 -6.28125 C 0.78125 -7.507812 1.054688 -8.609375 1.609375 -9.578125 C 2.160156 -10.554688 2.910156 -11.320312 3.859375 -11.875 C 4.816406 -12.425781 5.875 -12.703125 7.03125 -12.703125 C 8.40625 -12.703125 9.601562 -12.375 10.625 -11.71875 C 11.644531 -11.0625 12.390625 -10.125 12.859375 -8.90625 L 10.890625 -8.90625 C 10.546875 -9.664062 10.046875 -10.25 9.390625 -10.65625 C 8.734375 -11.0625 7.945312 -11.265625 7.03125 -11.265625 C 6.15625 -11.265625 5.367188 -11.0625 4.671875 -10.65625 C 3.984375 -10.25 3.441406 -9.671875 3.046875 -8.921875 C 2.648438 -8.171875 2.453125 -7.289062 2.453125 -6.28125 C 2.453125 -5.28125 2.648438 -4.40625 3.046875 -3.65625 C 3.441406 -2.90625 3.984375 -2.328125 4.671875 -1.921875 C 5.367188 -1.515625 6.15625 -1.3125 7.03125 -1.3125 C 7.945312 -1.3125 8.734375 -1.507812 9.390625 -1.90625 C 10.046875 -2.3125 10.546875 -2.894531 10.890625 -3.65625 L 12.859375 -3.65625 C 12.390625 -2.457031 11.644531 -1.53125 10.625 -0.875 C 9.601562 -0.21875 8.40625 0.109375 7.03125 0.109375 C 5.875 0.109375 4.816406 -0.160156 3.859375 -0.703125 C 2.910156 -1.253906 2.160156 -2.015625 1.609375 -2.984375 C 1.054688 -3.960938 0.78125 -5.0625 0.78125 -6.28125 Z M 0.78125 -6.28125 "/></g></g></g><g fill="#2f81ff" fill-opacity="1"><g transform="translate(174.586144, 264.36971)"><g><path d="M 7.078125 0.125 C 5.910156 0.125 4.847656 -0.144531 3.890625 -0.6875 C 2.929688 -1.238281 2.171875 -2.003906 1.609375 -2.984375 C 1.054688 -3.960938 0.78125 -5.0625 0.78125 -6.28125 C 0.78125 -7.507812 1.054688 -8.609375 1.609375 -9.578125 C 2.171875 -10.554688 2.929688 -11.316406 3.890625 -11.859375 C 4.847656 -12.410156 5.910156 -12.6875 7.078125 -12.6875 C 8.253906 -12.6875 9.320312 -12.410156 10.28125 -11.859375 C 11.238281 -11.316406 11.992188 -10.5625 12.546875 -9.59375 C 13.097656 -8.625 13.375 -7.519531 13.375 -6.28125 C 13.375 -5.039062 13.097656 -3.9375 12.546875 -2.96875 C 11.992188 -2 11.238281 -1.238281 10.28125 -0.6875 C 9.320312 -0.144531 8.253906 0.125 7.078125 0.125 Z M 7.078125 -1.296875 C 7.953125 -1.296875 8.738281 -1.5 9.4375 -1.90625 C 10.144531 -2.3125 10.695312 -2.890625 11.09375 -3.640625 C 11.5 -4.398438 11.703125 -5.28125 11.703125 -6.28125 C 11.703125 -7.289062 11.5 -8.171875 11.09375 -8.921875 C 10.695312 -9.671875 10.148438 -10.25 9.453125 -10.65625 C 8.753906 -11.0625 7.960938 -11.265625 7.078125 -11.265625 C 6.179688 -11.265625 5.382812 -11.0625 4.6875 -10.65625 C 4 -10.25 3.453125 -9.671875 3.046875 -8.921875 C 2.648438 -8.171875 2.453125 -7.289062 2.453125 -6.28125 C 2.453125 -5.28125 2.648438 -4.398438 3.046875 -3.640625 C 3.453125 -2.890625 4.003906 -2.3125 4.703125 -1.90625 C 5.410156 -1.5 6.203125 -1.296875 7.078125 -1.296875 Z M 7.078125 -1.296875 "/></g></g></g><g fill="#2f81ff" fill-opacity="1"><g transform="translate(192.334127, 264.36971)"><g><path d="M 5.296875 -12.546875 C 6.660156 -12.546875 7.84375 -12.289062 8.84375 -11.78125 C 9.84375 -11.269531 10.609375 -10.539062 11.140625 -9.59375 C 11.679688 -8.644531 11.953125 -7.53125 11.953125 -6.25 C 11.953125 -4.957031 11.679688 -3.84375 11.140625 -2.90625 C 10.609375 -1.96875 9.84375 -1.25 8.84375 -0.75 C 7.84375 -0.25 6.660156 0 5.296875 0 L 1.390625 0 L 1.390625 -12.546875 Z M 5.296875 -1.34375 C 6.910156 -1.34375 8.144531 -1.769531 9 -2.625 C 9.851562 -3.488281 10.28125 -4.695312 10.28125 -6.25 C 10.28125 -7.8125 9.847656 -9.03125 8.984375 -9.90625 C 8.128906 -10.78125 6.898438 -11.21875 5.296875 -11.21875 L 3.03125 -11.21875 L 3.03125 -1.34375 Z M 5.296875 -1.34375 "/></g></g></g><g fill="#2f81ff" fill-opacity="1"><g transform="translate(208.660124, 264.36971)"><g><path d="M 3.03125 -11.21875 L 3.03125 -7.015625 L 7.59375 -7.015625 L 7.59375 -5.671875 L 3.03125 -5.671875 L 3.03125 -1.34375 L 8.140625 -1.34375 L 8.140625 0 L 1.390625 0 L 1.390625 -12.5625 L 8.140625 -12.5625 L 8.140625 -11.21875 Z M 3.03125 -11.21875 "/></g></g></g></svg>