<svg xmlns="http://www.w3.org/2000/svg" xmlns:xlink="http://www.w3.org/1999/xlink" width="500" zoomAndPan="magnify" viewBox="0 0 375 374.999991" height="500" preserveAspectRatio="xMidYMid meet" version="1.0"><defs><g/><clipPath id="f67aa75a13"><path d="M 37.5 160.175781 L 120.546875 160.175781 L 120.546875 192.28125 L 37.5 192.28125 Z M 37.5 160.175781 " clip-rule="nonzero"/></clipPath><clipPath id="113bc93947"><path d="M 66.5 169.496094 L 120.144531 169.496094 L 120.144531 214.828125 L 66.5 214.828125 Z M 66.5 169.496094 " clip-rule="nonzero"/></clipPath><clipPath id="d209611b03"><path d="M 54.277344 191.867188 L 63.804688 191.867188 L 63.804688 214.828125 L 54.277344 214.828125 Z M 54.277344 191.867188 " clip-rule="nonzero"/></clipPath></defs><g clip-path="url(#f67aa75a13)"><path fill="#fe4eee" d="M 93.222656 160.175781 L 37.5 160.175781 C 37.5 165.378906 41.71875 169.597656 46.921875 169.597656 L 93.222656 169.597656 C 106.675781 169.597656 117.890625 179.375 120.136719 192.199219 C 120.390625 190.761719 120.53125 189.28125 120.546875 187.773438 C 120.691406 172.582031 108.378906 160.175781 93.222656 160.175781 " fill-opacity="1" fill-rule="nonzero"/></g><g clip-path="url(#113bc93947)"><path fill="#2f81ff" d="M 93.222656 169.597656 C 103.183594 169.597656 111.273438 177.78125 111.121094 187.78125 C 110.972656 197.605469 102.773438 205.40625 92.949219 205.40625 L 75.945312 205.40625 L 75.945312 181.804688 L 66.523438 189.601562 L 66.523438 214.828125 L 92.871094 214.828125 C 106.40625 214.828125 117.867188 205.105469 120.136719 192.199219 C 117.890625 179.375 106.675781 169.597656 93.222656 169.597656 " fill-opacity="1" fill-rule="nonzero"/></g><g clip-path="url(#d209611b03)"><path fill="#fe4eee" d="M 54.304688 214.828125 L 63.730469 214.828125 L 63.730469 191.914062 L 54.304688 199.710938 L 54.304688 214.828125 " fill-opacity="1" fill-rule="nonzero"/></g><path fill="#fe4eee" d="M 87.855469 202.742188 L 87.855469 171.949219 L 78.433594 179.746094 L 78.433594 202.742188 L 87.855469 202.742188 " fill-opacity="1" fill-rule="nonzero"/><g fill="#2f81ff" fill-opacity="1"><g transform="translate(137.714203, 189.505886)"><g><path d="M 3.3125 -27.96875 L 16.015625 -27.96875 C 19.054688 -27.96875 21.738281 -27.382812 24.0625 -26.21875 C 26.394531 -25.0625 28.207031 -23.429688 29.5 -21.328125 C 30.789062 -19.222656 31.4375 -16.773438 31.4375 -13.984375 C 31.4375 -11.179688 30.789062 -8.726562 29.5 -6.625 C 28.207031 -4.519531 26.394531 -2.890625 24.0625 -1.734375 C 21.738281 -0.578125 19.054688 0 16.015625 0 L 3.3125 0 Z M 15.703125 -5.3125 C 18.492188 -5.3125 20.722656 -6.085938 22.390625 -7.640625 C 24.054688 -9.203125 24.890625 -11.316406 24.890625 -13.984375 C 24.890625 -16.648438 24.054688 -18.757812 22.390625 -20.3125 C 20.722656 -21.875 18.492188 -22.65625 15.703125 -22.65625 L 9.78125 -22.65625 L 9.78125 -5.3125 Z M 15.703125 -5.3125 "/></g></g></g><g fill="#2f81ff" fill-opacity="1"><g transform="translate(172.870462, 189.505886)"><g><path d="M 21.140625 0 L 15.734375 -7.796875 L 9.78125 -7.796875 L 9.78125 0 L 3.3125 0 L 3.3125 -27.96875 L 15.421875 -27.96875 C 17.898438 -27.96875 20.050781 -27.550781 21.875 -26.71875 C 23.695312 -25.894531 25.097656 -24.722656 26.078125 -23.203125 C 27.066406 -21.691406 27.5625 -19.894531 27.5625 -17.8125 C 27.5625 -15.738281 27.0625 -13.945312 26.0625 -12.4375 C 25.070312 -10.9375 23.65625 -9.785156 21.8125 -8.984375 L 28.09375 0 Z M 21.015625 -17.8125 C 21.015625 -19.382812 20.507812 -20.585938 19.5 -21.421875 C 18.488281 -22.265625 17.007812 -22.6875 15.0625 -22.6875 L 9.78125 -22.6875 L 9.78125 -12.9375 L 15.0625 -12.9375 C 17.007812 -12.9375 18.488281 -13.363281 19.5 -14.21875 C 20.507812 -15.070312 21.015625 -16.269531 21.015625 -17.8125 Z M 21.015625 -17.8125 "/></g></g></g><g fill="#2f81ff" fill-opacity="1"><g transform="translate(204.391346, 189.505886)"><g><path d="M 21.734375 -6 L 8.75 -6 L 6.265625 0 L -0.359375 0 L 12.109375 -27.96875 L 18.5 -27.96875 L 31 0 L 24.21875 0 Z M 19.703125 -10.90625 L 15.265625 -21.609375 L 10.828125 -10.90625 Z M 19.703125 -10.90625 "/></g></g></g><g fill="#2f81ff" fill-opacity="1"><g transform="translate(237.150651, 189.505886)"><g><path d="M 28.765625 0 L 28.71875 -16.78125 L 20.5 -2.953125 L 17.578125 -2.953125 L 9.390625 -16.421875 L 9.390625 0 L 3.3125 0 L 3.3125 -27.96875 L 8.671875 -27.96875 L 19.140625 -10.59375 L 29.453125 -27.96875 L 34.765625 -27.96875 L 34.84375 0 Z M 28.765625 0 "/></g></g></g><g fill="#2f81ff" fill-opacity="1"><g transform="translate(137.714203, 216.687466)"><g><path d="M 0.78125 -6.359375 C 0.78125 -7.597656 1.054688 -8.710938 1.609375 -9.703125 C 2.171875 -10.691406 2.9375 -11.460938 3.90625 -12.015625 C 4.875 -12.578125 5.945312 -12.859375 7.125 -12.859375 C 8.507812 -12.859375 9.71875 -12.523438 10.75 -11.859375 C 11.78125 -11.191406 12.535156 -10.242188 13.015625 -9.015625 L 11.015625 -9.015625 C 10.671875 -9.785156 10.164062 -10.375 9.5 -10.78125 C 8.84375 -11.195312 8.050781 -11.40625 7.125 -11.40625 C 6.238281 -11.40625 5.441406 -11.195312 4.734375 -10.78125 C 4.035156 -10.375 3.484375 -9.789062 3.078125 -9.03125 C 2.679688 -8.269531 2.484375 -7.378906 2.484375 -6.359375 C 2.484375 -5.347656 2.679688 -4.460938 3.078125 -3.703125 C 3.484375 -2.941406 4.035156 -2.351562 4.734375 -1.9375 C 5.441406 -1.53125 6.238281 -1.328125 7.125 -1.328125 C 8.050781 -1.328125 8.84375 -1.53125 9.5 -1.9375 C 10.164062 -2.34375 10.671875 -2.929688 11.015625 -3.703125 L 13.015625 -3.703125 C 12.535156 -2.484375 11.78125 -1.539062 10.75 -0.875 C 9.71875 -0.21875 8.507812 0.109375 7.125 0.109375 C 5.945312 0.109375 4.875 -0.164062 3.90625 -0.71875 C 2.9375 -1.269531 2.171875 -2.035156 1.609375 -3.015625 C 1.054688 -4.003906 0.78125 -5.117188 0.78125 -6.359375 Z M 0.78125 -6.359375 "/></g></g></g><g fill="#2f81ff" fill-opacity="1"><g transform="translate(153.59481, 216.687466)"><g><path d="M 7.15625 0.125 C 5.976562 0.125 4.90625 -0.148438 3.9375 -0.703125 C 2.96875 -1.253906 2.195312 -2.023438 1.625 -3.015625 C 1.0625 -4.003906 0.78125 -5.117188 0.78125 -6.359375 C 0.78125 -7.597656 1.0625 -8.710938 1.625 -9.703125 C 2.195312 -10.691406 2.96875 -11.460938 3.9375 -12.015625 C 4.90625 -12.566406 5.976562 -12.84375 7.15625 -12.84375 C 8.351562 -12.84375 9.4375 -12.566406 10.40625 -12.015625 C 11.375 -11.460938 12.132812 -10.691406 12.6875 -9.703125 C 13.25 -8.722656 13.53125 -7.609375 13.53125 -6.359375 C 13.53125 -5.109375 13.25 -3.988281 12.6875 -3 C 12.132812 -2.019531 11.375 -1.253906 10.40625 -0.703125 C 9.4375 -0.148438 8.351562 0.125 7.15625 0.125 Z M 7.15625 -1.3125 C 8.039062 -1.3125 8.835938 -1.515625 9.546875 -1.921875 C 10.265625 -2.335938 10.828125 -2.925781 11.234375 -3.6875 C 11.640625 -4.457031 11.84375 -5.347656 11.84375 -6.359375 C 11.84375 -7.378906 11.640625 -8.269531 11.234375 -9.03125 C 10.828125 -9.789062 10.269531 -10.375 9.5625 -10.78125 C 8.863281 -11.195312 8.0625 -11.40625 7.15625 -11.40625 C 6.257812 -11.40625 5.457031 -11.195312 4.75 -10.78125 C 4.050781 -10.375 3.5 -9.789062 3.09375 -9.03125 C 2.6875 -8.269531 2.484375 -7.378906 2.484375 -6.359375 C 2.484375 -5.347656 2.6875 -4.457031 3.09375 -3.6875 C 3.5 -2.925781 4.054688 -2.335938 4.765625 -1.921875 C 5.472656 -1.515625 6.269531 -1.3125 7.15625 -1.3125 Z M 7.15625 -1.3125 "/></g></g></g><g fill="#2f81ff" fill-opacity="1"><g transform="translate(169.730367, 216.687466)"><g><path d="M 5.359375 -12.703125 C 6.742188 -12.703125 7.941406 -12.441406 8.953125 -11.921875 C 9.960938 -11.410156 10.738281 -10.671875 11.28125 -9.703125 C 11.820312 -8.742188 12.09375 -7.617188 12.09375 -6.328125 C 12.09375 -5.023438 11.820312 -3.894531 11.28125 -2.9375 C 10.738281 -1.988281 9.960938 -1.257812 8.953125 -0.75 C 7.941406 -0.25 6.742188 0 5.359375 0 L 1.40625 0 L 1.40625 -12.703125 Z M 5.359375 -1.359375 C 6.992188 -1.359375 8.242188 -1.789062 9.109375 -2.65625 C 9.972656 -3.53125 10.40625 -4.753906 10.40625 -6.328125 C 10.40625 -7.898438 9.96875 -9.128906 9.09375 -10.015625 C 8.226562 -10.898438 6.984375 -11.34375 5.359375 -11.34375 L 3.0625 -11.34375 L 3.0625 -1.359375 Z M 5.359375 -1.359375 "/></g></g></g><g fill="#2f81ff" fill-opacity="1"><g transform="translate(184.427266, 216.687466)"><g><path d="M 3.0625 -11.34375 L 3.0625 -7.109375 L 7.6875 -7.109375 L 7.6875 -5.734375 L 3.0625 -5.734375 L 3.0625 -1.359375 L 8.234375 -1.359375 L 8.234375 0 L 1.40625 0 L 1.40625 -12.71875 L 8.234375 -12.71875 L 8.234375 -11.34375 Z M 3.0625 -11.34375 "/></g></g></g></svg>