<svg width="97" height="59" viewBox="0 0 97 59" fill="none" xmlns="http://www.w3.org/2000/svg">
<path d="M87.0962 1.7154C86.708 0.689248 85.7084 0.000299971 84.6087 0.000299971C84.2925 0.000299971 83.9805 0.0563196 83.6821 0.167284L73.9733 3.76825C73.2904 3.99933 72.7228 4.50352 72.4141 5.15099C72.1043 5.80331 72.0735 6.53428 72.3292 7.21407L72.4589 7.55558C72.3989 7.58359 72.3389 7.6116 72.2789 7.64015C70.7375 8.36034 68.9902 9.17642 67.7586 9.17642H67.7581C65.183 9.12417 62.5901 8.40775 59.8447 7.64931C56.9956 6.86286 54.0496 6.04894 51.1123 6.04894C49.7715 6.04894 48.541 6.2127 47.3532 6.55151C45.6216 7.04385 43.7109 7.92564 42.0452 8.97873C38.8868 7.66008 34.7255 7.86208 31.3297 8.04415C29.6765 8.13356 28.1151 8.2176 27.05 8.0964C26.2726 8.01075 25.4946 7.62345 24.6739 7.2006C24.9199 6.53967 24.8945 5.82324 24.6015 5.1817C24.3079 4.53907 23.7797 4.04835 23.1136 3.80003L13.3162 0.167284C11.95 -0.342829 10.4183 0.353663 9.90311 1.71325L0.171588 27.3116C-0.0781874 27.9736 -0.0549399 28.6932 0.239168 29.338C0.532736 29.9823 1.0604 30.4741 1.72755 30.7229L11.525 34.3557C12.6501 34.7737 13.8957 34.3734 14.5834 33.4556C16.307 34.5253 19.088 36.304 20.7521 37.3802C19.8903 38.7996 19.7947 40.4646 20.5224 41.9465C21.4328 43.7995 23.4888 44.9899 25.467 44.817C25.5152 45.4833 25.7098 46.1427 26.0547 46.7654C27.0522 48.572 29.1585 49.6494 31.127 49.3876C31.2005 50.014 31.4049 50.6297 31.7401 51.2093C32.7435 52.9481 34.8061 53.9845 36.7237 53.74C36.7999 54.3858 37.0135 55.0171 37.366 55.6037C38.2829 57.1292 40.0108 58.1155 41.769 58.1155H41.7701C43.2546 58.1155 44.6035 57.432 45.5691 56.192L46.1017 55.5095L49.3671 57.7541C50.4971 58.5788 51.8287 59 53.1884 59C54.0815 59 54.9882 58.8179 55.8575 58.4484C57.5167 57.7422 58.7667 56.4672 59.3933 54.9002C60.9984 55.168 62.6863 54.8103 64.1261 53.8585C65.5177 52.9384 66.4692 51.5772 66.8233 50.0587C68.1879 49.9823 69.5216 49.4759 70.6224 48.5925C71.6734 47.75 72.4243 46.6275 72.7871 45.3907C75.2265 45.4516 77.369 44.1852 78.5184 41.9917C79.8095 39.53 79.3802 36.6003 77.4755 34.5313L81.8077 32.1444L82.0607 32.8102C82.4494 33.8348 83.448 34.5237 84.5471 34.5237C84.8645 34.5237 85.1759 34.4677 85.4738 34.3567L95.2745 30.7229C95.9389 30.4751 96.4671 29.9833 96.7607 29.3391C97.0548 28.6949 97.0786 27.9752 96.8277 27.3105L87.0962 1.7154ZM48.0923 9.13225C49.0373 8.86345 50.0245 8.73256 51.1123 8.73256C53.6836 8.73256 56.3268 9.46244 59.1251 10.236C61.9094 11.0052 64.79 11.8013 67.704 11.8595C67.7127 11.8595 67.7954 11.86 67.8051 11.86C69.5881 11.86 71.6215 10.9115 73.4159 10.0728L80.8421 29.6068L75.2789 32.6729C75.2535 32.6524 75.2265 32.6309 75.2011 32.6104C72.5919 30.4999 69.9817 28.3905 67.371 26.2816L67.1342 26.0904C67.6608 25.7085 67.8467 24.9942 67.5407 24.399C67.2007 23.7392 66.3881 23.4763 65.7274 23.8162C65.203 24.0839 64.6721 24.3101 64.1482 24.4879C64.1471 24.4879 64.1455 24.4895 64.1439 24.4895C63.0637 24.858 61.8959 25.0449 60.6735 25.0449C56.5263 25.0449 51.5032 22.8294 47.2375 19.1185C46.7153 18.6644 45.9286 18.6795 45.4242 19.1568C43.3103 21.1563 40.4979 22.5773 37.7077 23.0545C37.2184 23.138 36.7805 23.1784 36.3685 23.1784C34.8417 23.1784 33.6475 22.5999 32.5132 21.3082C32.5797 21.2355 32.6868 21.1358 32.8544 21.0119C34.5979 19.5834 36.7302 17.4977 38.7927 15.4809C40.2173 14.0874 41.5641 12.7709 42.6486 11.8035C44.2456 10.6556 46.3249 9.63428 48.0923 9.13225ZM12.4647 31.8401L2.69259 28.2596L12.376 2.68284L22.1335 6.3005L21.7118 7.34927C21.7085 7.35735 21.7074 7.3649 21.7042 7.37244L21.7026 7.37189L12.7269 31.0472L12.4647 31.8401ZM25.0627 42.149C24.2149 42.149 23.3418 41.5802 22.9417 40.7652C22.6828 40.2378 22.5233 39.4185 23.2326 38.5082L26.6959 34.0669C27.1571 33.4766 27.7188 33.1771 28.3654 33.1771C29.2061 33.1771 30.0868 33.7093 30.5074 34.4715C30.768 34.9444 30.9535 35.6969 30.3863 36.6116L26.4332 41.612C26.0077 41.9643 25.5476 42.149 25.0627 42.149ZM30.4999 46.7438C29.6732 46.7438 28.8352 46.2321 28.4141 45.4699C28.1475 44.9883 27.954 44.2256 28.5146 43.3174L32.4683 38.317C32.8906 37.9658 33.3528 37.7826 33.8459 37.7826C34.6444 37.7826 35.464 38.2717 35.8852 38.9995C36.156 39.4686 36.3658 40.2136 35.8684 41.1143L31.9709 46.1114C31.5287 46.5278 31.0356 46.7438 30.4999 46.7438ZM36.1231 51.0919C35.3208 51.0919 34.4963 50.6006 34.0735 49.8686C33.8043 49.401 33.5961 48.6577 34.0962 47.7587L37.9921 42.762C38.4321 42.3467 38.9257 42.1323 39.4664 42.1323C40.2557 42.1323 41.0737 42.609 41.5003 43.319C41.7711 43.7688 41.9895 44.4884 41.5462 45.3762L37.5249 50.5328C37.0984 50.9001 36.6286 51.0919 36.1231 51.0919ZM41.769 55.4303C40.951 55.4303 40.1114 54.945 39.6778 54.2242C39.4134 53.7836 39.2036 53.0747 39.6497 52.1843L43.672 47.0255C44.104 46.6533 44.5738 46.4583 45.0707 46.4583C45.9195 46.4583 46.7931 47.0293 47.1948 47.8465C47.4538 48.3733 47.6133 49.1926 46.905 50.1024L43.4406 54.5453C42.9827 55.1324 42.4204 55.4303 41.769 55.4303ZM54.7984 55.9786C53.4938 56.5351 52.0568 56.3886 50.9269 55.565L47.756 53.385L49.0325 51.7485C49.864 50.6814 50.2073 49.4258 50.0597 48.1961C50.9117 48.8823 51.7789 49.5799 52.6456 50.2785C54.1145 51.4609 55.5715 52.6341 56.9399 53.7389C56.6003 54.7225 55.8407 55.5353 54.7984 55.9786ZM76.1299 40.7469C75.5303 41.891 74.1982 42.9441 72.2389 42.6392L62.1651 34.5388C61.5856 34.0739 60.7373 34.1617 60.2707 34.7408C59.8042 35.3172 59.8939 36.1623 60.4735 36.6277L70.2326 44.4744C70.0439 45.2501 69.5962 45.9676 68.9329 46.4998C68.1279 47.1451 67.1234 47.4344 66.1356 47.3477C65.728 47.0228 65.0781 46.4885 64.6483 46.1357L55.8964 39.0533C55.3185 38.5885 54.4697 38.6741 54.0009 39.2499C53.5328 39.8258 53.6203 40.6709 54.1983 41.138L62.9329 48.2057C63.4319 48.6151 63.8747 48.9798 64.2293 49.2653C64.072 50.1999 63.5162 51.038 62.635 51.6203C61.5521 52.3368 60.2507 52.487 59.1268 52.0491C57.6211 50.8323 55.984 49.5147 54.3394 48.1901C52.4817 46.6953 50.6165 45.1941 48.9265 43.827C48.3486 43.361 47.5003 43.4477 47.031 44.0236C46.9905 44.0737 46.9597 44.1281 46.9272 44.1814C46.1427 43.8523 45.2923 43.7047 44.4624 43.813C44.384 43.1644 44.1667 42.5304 43.811 41.9389C42.7881 40.2389 40.7169 39.2343 38.8344 39.4896C38.7603 38.8594 38.5549 38.2399 38.2175 37.6577C37.2476 35.9835 35.3024 34.953 33.4458 35.1141C33.4015 34.4505 33.209 33.7949 32.8684 33.1771C31.9677 31.5455 30.1998 30.4913 28.3654 30.4913C26.8878 30.4913 25.539 31.1759 24.569 32.4186L22.3757 35.2304C20.6337 34.1025 17.4288 32.0502 15.6425 30.9508L23.6948 9.714C24.5977 10.1729 25.6006 10.6367 26.7511 10.7633C28.0351 10.9077 29.6278 10.8226 31.473 10.7235C34.0546 10.5861 37.1211 10.4315 39.568 10.9922C38.7403 11.7755 37.8445 12.6486 36.9059 13.5654C34.885 15.5418 32.7949 17.5849 31.1995 18.896C30.0619 19.7315 29.7781 20.6165 29.7397 21.2118C29.697 21.8792 29.936 22.5094 30.4155 22.9963C32.0775 24.9258 34.0259 25.8636 36.3691 25.8636C36.9351 25.8636 37.5222 25.8109 38.1634 25.7015C41.1272 25.1946 44.0034 23.8587 46.3763 21.9018C49.1163 24.1033 54.561 27.7301 60.6735 27.7301C61.9267 27.7301 63.1405 27.5701 64.2926 27.2529L67.5629 29.8961C69.6471 31.581 71.8458 33.3586 73.6564 34.82C74.1922 35.2531 74.728 35.6851 75.2638 36.1182C76.8916 37.649 76.7495 39.5656 76.1299 40.7469ZM84.5795 31.8595L83.7756 29.7436L75.4249 7.77859L74.8761 6.29727L84.5747 2.66345L94.3305 28.2074L84.5795 31.8595Z" fill="black"/>
</svg>
