<svg width="29" height="29" viewBox="0 0 29 29" fill="none" xmlns="http://www.w3.org/2000/svg">
<path d="M27.7896 19.979L25.2001 17.3895C24.4282 16.6238 23.3863 16.1921 22.2991 16.1875C21.2119 16.1829 20.1663 16.6057 19.388 17.3648C18.9726 17.7825 18.4247 18.0424 17.8384 18.0998C17.2522 18.1571 16.6643 18.0084 16.1758 17.6791C14.2481 16.3925 12.592 14.7396 11.3018 12.8144C10.9783 12.3205 10.8349 11.7302 10.8958 11.143C10.9567 10.5558 11.2181 10.0075 11.6361 9.59046C12.3883 8.81134 12.8057 7.76872 12.7988 6.68574C12.792 5.60277 12.3616 4.56548 11.5996 3.7959L9.01011 1.20642C8.23485 0.433819 7.18498 0 6.09049 0C4.996 0 3.94612 0.433819 3.17087 1.20642L2.42581 1.95266C-1.45838 5.83689 -1.16765 14.0032 6.91382 22.08C11.7867 26.9541 16.6914 28.9951 20.6686 28.9951C21.8393 29.0341 23.0061 28.8397 24.101 28.4232C25.1958 28.0067 26.1969 27.3765 27.0457 26.5692L27.7919 25.823C28.5659 25.0474 29.0004 23.9963 29 22.9005C28.9996 21.8048 28.5642 20.754 27.7896 19.979ZM26.1253 24.1587L25.379 24.9049C22.3188 27.9652 15.5638 27.4061 8.57578 20.4169C1.58777 13.4276 1.0275 6.66787 4.08778 3.60758L4.82813 2.86251C5.16147 2.53037 5.61286 2.34388 6.08343 2.34388C6.55399 2.34388 7.00538 2.53037 7.33873 2.86251L9.92819 5.45199C10.2555 5.78092 10.4412 6.22474 10.4459 6.68874C10.4505 7.15274 10.2736 7.60016 9.95291 7.93554C9.15756 8.73597 8.66144 9.7854 8.54765 10.908C8.43387 12.0307 8.70933 13.1583 9.3279 14.102C10.7939 16.2959 12.6792 18.1784 14.8752 19.6412C15.8161 20.2599 16.9408 20.5369 18.0614 20.4262C19.182 20.3154 20.2307 19.8235 21.0323 19.0327C21.367 18.7082 21.8157 18.528 22.2819 18.5309C22.748 18.5337 23.1945 18.7194 23.5252 19.048L26.1147 21.6374C26.2816 21.8019 26.4143 21.9978 26.5052 22.2137C26.5961 22.4297 26.6434 22.6615 26.6444 22.8958C26.6454 23.1302 26.6 23.3624 26.5109 23.5791C26.4218 23.7958 26.2908 23.9928 26.1253 24.1587Z" fill="black"/>
</svg>
