<svg width="26" height="22" viewBox="0 0 26 22" fill="none" xmlns="http://www.w3.org/2000/svg">
<path d="M25.3787 1.94945C25.3789 1.75131 25.3258 1.55667 25.225 1.38537C25.1242 1.21406 24.9792 1.07219 24.8047 0.974224C24.6303 0.876255 24.4327 0.825679 24.2321 0.827647C24.0315 0.829615 23.8349 0.884058 23.6625 0.985429C22.9976 1.37623 22.2817 1.67552 21.5348 1.87499C20.468 0.971107 19.1075 0.47649 17.7019 0.481545C16.1598 0.483298 14.6788 1.07674 13.5716 2.13657C12.4644 3.1964 11.8176 4.63965 11.7678 6.16157C8.72784 5.68287 5.97262 4.11606 4.02757 1.75993C3.91038 1.61952 3.76071 1.50901 3.59119 1.4377C3.42167 1.36639 3.23727 1.33638 3.05354 1.3502C2.86992 1.36513 2.69274 1.42401 2.53733 1.52173C2.38192 1.61946 2.25296 1.75309 2.16159 1.91108C1.69302 2.71854 1.4239 3.62374 1.3761 4.55318C1.3283 5.48261 1.50315 6.41008 1.88646 7.26026L1.88425 7.26245C1.71197 7.36723 1.56979 7.5139 1.47132 7.68844C1.37284 7.86298 1.32136 8.05954 1.32179 8.25934C1.3197 8.42416 1.32971 8.58891 1.35174 8.7523C1.46777 10.1638 2.10126 11.485 3.13341 12.4681C3.06339 12.5999 3.02066 12.744 3.0077 12.8923C2.99475 13.0405 3.01184 13.1897 3.05797 13.3314C3.50796 14.7158 4.46491 15.8846 5.74157 16.609C4.44452 17.1043 3.04403 17.277 1.66348 17.1118C1.40796 17.0802 1.14913 17.1352 0.929444 17.2679C0.70976 17.4006 0.542268 17.6031 0.454442 17.8421C0.366615 18.0812 0.363669 18.3426 0.446087 18.5835C0.528505 18.8244 0.691393 19.0305 0.908032 19.168C3.28239 20.6781 6.04696 21.481 8.87118 21.4806C12.0739 21.5162 15.1987 20.5056 17.7596 18.606C20.3204 16.7065 22.1738 14.0244 23.0313 10.9772C23.4324 9.64972 23.6371 8.27201 23.6393 6.88673C23.6393 6.81333 23.6393 6.73775 23.6381 6.66216C24.2312 6.03053 24.6907 5.28834 24.9896 4.4791C25.2885 3.66985 25.4208 2.80983 25.3787 1.94945ZM21.6224 5.55245C21.4347 5.77158 21.3398 6.05365 21.3572 6.34009C21.3683 6.52519 21.3672 6.7114 21.3672 6.88673C21.3649 8.05733 21.1911 9.22145 20.8513 10.3429C20.151 12.9358 18.5897 15.2215 16.4176 16.8341C14.2455 18.4467 11.5881 19.2929 8.87118 19.2371C7.89521 19.2374 6.9226 19.1241 5.97347 18.8997C7.18379 18.5145 8.31545 17.9207 9.31604 17.1458C9.50033 17.0025 9.6352 16.8064 9.70215 16.5845C9.7691 16.3625 9.76485 16.1255 9.68998 15.906C9.61511 15.6865 9.47329 15.4952 9.28398 15.3585C9.09467 15.2217 8.86714 15.1462 8.63262 15.1422C7.6884 15.1277 6.78675 14.7519 6.11764 14.0938C6.28739 14.0621 6.45602 14.0226 6.62353 13.9755C6.86892 13.9066 7.08366 13.758 7.23318 13.5539C7.3827 13.3498 7.45829 13.1019 7.44779 12.8501C7.43728 12.5984 7.34129 12.3575 7.17527 12.1662C7.00925 11.9749 6.78286 11.8443 6.53256 11.7955C5.98448 11.6887 5.46874 11.4584 5.02544 11.1227C4.58213 10.787 4.2232 10.3548 3.97654 9.85984C4.18185 9.88751 4.38847 9.90469 4.59558 9.91133C4.84162 9.915 5.08246 9.8413 5.28329 9.70089C5.48411 9.56048 5.63451 9.36063 5.71273 9.13025C5.78768 8.89778 5.78382 8.64752 5.70174 8.41741C5.61966 8.1873 5.46383 7.98989 5.25788 7.85512C4.75821 7.52642 4.3489 7.08046 4.06661 6.5572C3.78433 6.03393 3.63789 5.4497 3.6404 4.85683C3.6404 4.78235 3.64262 4.70785 3.64706 4.63445C6.19315 6.97922 9.49558 8.36145 12.9725 8.53761C13.148 8.54444 13.3228 8.5118 13.4837 8.44215C13.6445 8.37251 13.7873 8.26767 13.9011 8.13558C14.0138 8.0022 14.0935 7.84482 14.1342 7.67583C14.1748 7.50684 14.1751 7.33085 14.1351 7.16171C14.0701 6.89401 14.037 6.61975 14.0364 6.34448C14.0374 5.38485 14.4239 4.46482 15.1111 3.78626C15.7983 3.10771 16.73 2.72605 17.7018 2.72504C18.2018 2.72371 18.6966 2.82476 19.1551 3.02179C19.6136 3.21883 20.0257 3.50758 20.3654 3.86981C20.4965 4.009 20.6614 4.11277 20.8445 4.17126C21.0276 4.22975 21.2228 4.24101 21.4116 4.20397C21.8782 4.11429 22.3382 3.99351 22.7883 3.84247C22.4813 4.46277 22.0889 5.03821 21.6224 5.55245Z" fill="white"/>
</svg>
