<svg width="16" height="16" viewBox="0 0 16 16" fill="none" xmlns="http://www.w3.org/2000/svg">
<path d="M8 0H7.98077C3.56923 0.0115385 0 3.58846 0 8C0 12.4115 3.56923 15.9885 7.98077 16H8C12.4192 16 16 12.4192 16 8C16 3.58077 12.4192 0 8 0ZM8.31923 4.78846C9.16923 4.76538 9.99231 4.65385 10.7885 4.46154C11.0269 5.40385 11.1769 6.49231 11.2 7.68462H8.31923V4.78846ZM8.31923 4.14615V0.692308C9.18077 0.930769 10.0577 2.08077 10.6115 3.84615C9.87308 4.02308 9.10769 4.12308 8.31923 4.14615ZM7.68077 0.684616V4.15C6.88462 4.12692 6.11154 4.02308 5.36923 3.84231C5.93077 2.06538 6.81154 0.907692 7.68077 0.684616ZM7.68077 4.78846V7.68077H4.78077C4.80385 6.48846 4.95385 5.4 5.19231 4.45769C5.99231 4.65 6.82692 4.76538 7.68077 4.78846ZM4.13462 7.68077H0.65C0.719231 6.03462 1.33462 4.52692 2.31538 3.33462C3.02692 3.72692 3.78462 4.05 4.57692 4.28846C4.31538 5.30769 4.16154 6.45769 4.13462 7.68077ZM4.13462 8.31923C4.15769 9.53846 4.31154 10.6923 4.57308 11.7115C3.78077 11.9538 3.02692 12.2731 2.31154 12.6654C1.33077 11.4731 0.719231 9.96538 0.646154 8.31923H4.13462ZM4.78077 8.31923H7.68077V11.2077C6.82692 11.2308 5.99231 11.3462 5.19231 11.5423C4.95385 10.6 4.80385 9.51154 4.78077 8.31923ZM7.68077 11.85V15.3192C6.81154 15.0923 5.93077 13.9385 5.36923 12.1615C6.11154 11.9769 6.88462 11.8731 7.68077 11.85ZM8.31923 15.3077V11.8462C9.10769 11.8692 9.87308 11.9731 10.6154 12.15C10.0577 13.9192 9.18462 15.0692 8.31923 15.3077ZM8.31923 11.2077V8.31923H11.2C11.1769 9.50769 11.0269 10.5962 10.7885 11.5385C9.99231 11.3462 9.16923 11.2308 8.31923 11.2077ZM11.8423 8.31923H15.35C15.2808 9.96538 14.6654 11.4692 13.6846 12.6654C12.9654 12.2692 12.2038 11.9462 11.4038 11.7038C11.6654 10.6846 11.8192 9.53846 11.8423 8.31923ZM11.8423 7.68077C11.8192 6.46154 11.6654 5.31154 11.4077 4.29231C12.2077 4.05 12.9692 3.72692 13.6846 3.33462C14.6654 4.52692 15.2808 6.03462 15.35 7.68462H11.8423V7.68077ZM13.2462 2.84231C12.6077 3.18077 11.9385 3.46154 11.2346 3.67308C10.8615 2.46923 10.3346 1.48846 9.71539 0.842308C11.0769 1.16923 12.2923 1.87692 13.2462 2.84231ZM6.26154 0.85C5.64231 1.49231 5.11923 2.47308 4.75 3.66923C4.05385 3.45769 3.38846 3.18077 2.75769 2.84231C3.7 1.88077 4.90769 1.17692 6.26154 0.85ZM2.75385 13.1538C3.38462 12.8154 4.05385 12.5385 4.74615 12.3269C5.11923 13.5269 5.64231 14.5038 6.26154 15.15C4.90769 14.8231 3.7 14.1192 2.75385 13.1538ZM9.71539 15.1577C10.3385 14.5115 10.8615 13.5308 11.2385 12.3231C11.9423 12.5346 12.6115 12.8154 13.25 13.1538C12.2962 14.1231 11.0769 14.8308 9.71539 15.1577Z" fill="white"/>
</svg>
